<svg width="15" height="23" viewBox="0 0 15 23" fill="none" xmlns="http://www.w3.org/2000/svg">
<rect x="7" width="1" height="2" fill="#21E46F"/>
<rect x="8" y="1" width="1" height="8" fill="#21E46F"/>
<rect x="8" y="1" width="1" height="8" fill="#21E46F"/>
<rect x="6" y="1" width="1" height="8" fill="#21E46F"/>
<rect x="6" y="1" width="1" height="8" fill="#21E46F"/>
<rect x="5" y="2" width="1" height="19" fill="#21E46F"/>
<rect x="9" y="2" width="1" height="19" fill="#21E46F"/>
<rect x="2" y="6" width="1" height="2" fill="#21E46F"/>
<rect x="12" y="6" width="1" height="2" fill="#21E46F"/>
<rect y="8" width="5" height="1" fill="#21E46F"/>
<rect x="10" y="8" width="5" height="1" fill="#21E46F"/>
<rect x="3" y="7" width="1" height="1" fill="#21E46F"/>
<rect x="11" y="7" width="1" height="1" fill="#21E46F"/>
<rect x="10" y="9" width="1" height="1" fill="#21E46F"/>
<rect x="4" y="9" width="1" height="1" fill="#21E46F"/>
<rect x="13" y="7" width="1" height="1" fill="#21E46F"/>
<rect x="1" y="7" width="1" height="1" fill="#21E46F"/>
<rect x="10" y="3" width="1" height="1" fill="#21E46F"/>
<rect x="4" y="3" width="1" height="1" fill="#21E46F"/>
<rect x="7" y="22" width="1" height="1" fill="#21E46F"/>
<rect x="6" y="21" width="1" height="1" fill="#21E46F"/>
<rect x="8" y="21" width="1" height="1" fill="#21E46F"/>
</svg>
