<svg width="16" height="13" viewBox="0 0 16 13" fill="none" xmlns="http://www.w3.org/2000/svg">
<rect x="4.00024" y="4.01852" width="2" height="1.74074" fill="#21E46F"/>
<rect x="11.0002" y="1.40741" width="1" height="0.87037" fill="#21E46F"/>
<rect x="3.00024" y="1.40741" width="1" height="0.87037" fill="#21E46F"/>
<rect x="4" y="0.537048" width="7" height="0.87037" fill="#21E46F"/>
<path d="M0.0375977 9.40674L-0.000113727 4.02386L0.999868 4.01855L1.03758 9.40143L0.0375977 9.40674Z" fill="#21E46F"/>
<path d="M14.0369 9.24353L14.0003 4.02384L15.0003 4.01853L15.0368 9.23822L14.0369 9.24353Z" fill="#21E46F"/>
<rect x="4" y="11.8519" width="7" height="0.87037" fill="#21E46F"/>
<rect x="5.00024" y="8.37036" width="1" height="0.87037" fill="#21E46F"/>
<rect x="9.00024" y="8.37036" width="1" height="0.87037" fill="#21E46F"/>
<rect x="3.00024" y="10.9815" width="1" height="0.87037" fill="#21E46F"/>
<rect x="2.00024" y="10.1111" width="1" height="0.87037" fill="#21E46F"/>
<rect x="1.00024" y="9.24072" width="1" height="0.87037" fill="#21E46F"/>
<rect x="11.0002" y="10.9815" width="1" height="0.87037" fill="#21E46F"/>
<rect x="12.0002" y="10.1111" width="1" height="0.87037" fill="#21E46F"/>
<rect x="13.0002" y="9.24072" width="1" height="0.87037" fill="#21E46F"/>
<rect x="13.0002" y="3.14813" width="1" height="0.87037" fill="#21E46F"/>
<rect x="1.00024" y="3.14813" width="1" height="0.87037" fill="#21E46F"/>
<rect x="2.00024" y="2.27777" width="1" height="0.87037" fill="#21E46F"/>
<rect x="6" y="9.24072" width="3" height="0.87037" fill="#21E46F"/>
<rect x="9" y="4.01852" width="2" height="1.74074" fill="#21E46F"/>
<rect x="12.0002" y="2.27777" width="1" height="0.87037" fill="#21E46F"/>
</svg>
