<svg width="36" height="37" viewBox="0 0 36 37" fill="none" xmlns="http://www.w3.org/2000/svg">
<rect x="5.14282" y="15.2353" width="25.7143" height="2.17647" fill="#21E46F"/>
<rect x="5.14282" y="17.4118" width="5.14286" height="19.5882" fill="#21E46F"/>
<rect x="5.14282" y="17.4118" width="5.14286" height="19.5882" fill="#21E46F"/>
<rect x="25.7144" y="17.4118" width="5.14286" height="19.5882" fill="#21E46F"/>
<rect x="25.7144" y="17.4118" width="5.14286" height="19.5882" fill="#21E46F"/>
<rect x="15.4285" y="17.4118" width="5.14286" height="10.8824" fill="#21E46F"/>
<rect x="15.4285" y="17.4118" width="5.14286" height="10.8824" fill="#21E46F"/>
<rect x="10.2856" y="23.9412" width="5.14286" height="13.0588" fill="#21E46F"/>
<rect x="10.2856" y="23.9412" width="5.14286" height="13.0588" fill="#21E46F"/>
<rect x="20.5715" y="23.9412" width="5.14286" height="13.0588" fill="#21E46F"/>
<rect x="20.5715" y="23.9412" width="5.14286" height="13.0588" fill="#21E46F"/>
<rect x="30.8572" y="15.2353" width="5.14286" height="2.17647" fill="#21E46F"/>
<rect x="15.4285" y="34.8235" width="5.14286" height="2.17647" fill="#21E46F"/>
<rect x="10.2856" y="17.4118" width="5.14286" height="2.17647" fill="#21E46F"/>
<rect x="20.5715" y="17.4118" width="5.14286" height="2.17647" fill="#21E46F"/>
<rect y="15.2353" width="5.14286" height="2.17647" fill="#21E46F"/>
<rect x="2.57153" y="10.8824" width="2.57143" height="4.35294" fill="#21E46F"/>
<rect x="5.14282" y="8.70587" width="2.57143" height="4.35294" fill="#21E46F"/>
<rect x="7.71436" y="6.52942" width="2.57143" height="4.35294" fill="#21E46F"/>
<rect x="10.2856" y="4.35294" width="2.57143" height="4.35294" fill="#21E46F"/>
<rect x="30.8572" y="10.8824" width="2.57143" height="4.35294" fill="#21E46F"/>
<rect x="28.2856" y="8.70587" width="2.57143" height="4.35294" fill="#21E46F"/>
<rect x="25.7144" y="6.52942" width="2.57143" height="4.35294" fill="#21E46F"/>
<rect x="23.1428" y="4.35294" width="2.57143" height="4.35294" fill="#21E46F"/>
<rect x="25.7144" width="2.57143" height="6.52941" fill="#21E46F"/>
<rect x="28.2856" width="2.57143" height="8.70588" fill="#21E46F"/>
<rect x="20.5715" y="2.17648" width="2.57143" height="4.35294" fill="#21E46F"/>
<rect x="12.8572" y="2.17648" width="2.57143" height="4.35294" fill="#21E46F"/>
<rect x="15.4285" width="2.57143" height="4.35294" fill="#21E46F"/>
<rect x="18" width="2.57143" height="4.35294" fill="#21E46F"/>
<rect y="13.0588" width="2.57143" height="2.17647" fill="#21E46F"/>
<rect x="33.4285" y="13.0588" width="2.57143" height="2.17647" fill="#21E46F"/>
</svg>
