<svg width="17" height="18" viewBox="0 0 17 18" fill="none" xmlns="http://www.w3.org/2000/svg">
<rect x="7" width="1" height="4" fill="#21E46F"/>
<rect x="9" width="1" height="4" fill="#21E46F"/>
<rect x="6" y="3" width="1" height="5" fill="#21E46F"/>
<rect x="10" y="3" width="1" height="5" fill="#21E46F"/>
<rect x="14" y="8" width="2" height="1" fill="#21E46F"/>
<rect x="14" y="8" width="2" height="1" fill="#21E46F"/>
<rect x="14" y="8" width="2" height="1" fill="#21E46F"/>
<rect x="14" y="17" width="2" height="1" fill="#21E46F"/>
<rect x="14" y="17" width="2" height="1" fill="#21E46F"/>
<rect x="14" y="17" width="2" height="1" fill="#21E46F"/>
<rect x="11" y="5" width="2" height="1" fill="#21E46F"/>
<rect x="11" y="5" width="2" height="1" fill="#21E46F"/>
<rect x="11" y="5" width="2" height="1" fill="#21E46F"/>
<rect y="17" width="3" height="1" fill="#21E46F"/>
<rect y="17" width="3" height="1" fill="#21E46F"/>
<rect y="17" width="3" height="1" fill="#21E46F"/>
<path d="M11 6H12V9H11V6Z" fill="#21E46F"/>
<path d="M11 6H12V9H11V6Z" fill="#21E46F"/>
<path d="M11 6H12V9H11V6Z" fill="#21E46F"/>
<rect y="8" width="1" height="10" fill="#21E46F"/>
<rect x="16" y="8" width="1" height="10" fill="#21E46F"/>
<rect x="9" y="10" width="1" height="2" fill="#21E46F"/>
<rect x="5" y="5" width="1" height="2" fill="#21E46F"/>
<rect x="5" y="7" width="1" height="1" fill="#21E46F"/>
<rect x="5" y="16" width="1" height="1" fill="#21E46F"/>
<rect x="5" y="8" width="1" height="1" fill="#21E46F"/>
<rect x="7" y="10" width="1" height="2" fill="#21E46F"/>
<rect x="9" y="16" width="1" height="2" fill="#21E46F"/>
<rect x="7" y="16" width="1" height="2" fill="#21E46F"/>
<rect x="8" y="9" width="1" height="2" fill="#21E46F"/>
<rect x="6" y="16" width="1" height="1" fill="#21E46F"/>
<rect x="8" y="17" width="1" height="1" fill="#21E46F"/>
<rect x="8" width="1" height="1" fill="#21E46F"/>
<rect x="4" y="16" width="1" height="1" fill="#21E46F"/>
<rect x="3" y="16" width="1" height="1" fill="#21E46F"/>
<rect x="10" y="16" width="1" height="1" fill="#21E46F"/>
<rect x="9" y="15" width="1" height="1" fill="#21E46F"/>
<rect x="7" y="15" width="1" height="1" fill="#21E46F"/>
<rect x="11" y="16" width="1" height="1" fill="#21E46F"/>
<rect x="4" y="15" width="1" height="1" fill="#21E46F"/>
<rect x="4" y="14" width="1" height="1" fill="#21E46F"/>
<rect x="3" y="15" width="1" height="1" fill="#21E46F"/>
<rect x="2" y="16" width="1" height="1" fill="#21E46F"/>
<rect x="14" y="16" width="1" height="1" fill="#21E46F"/>
<rect x="1" y="8" width="1" height="1" fill="#21E46F"/>
<rect x="4" y="5" width="1" height="1" fill="#21E46F"/>
<rect x="13" y="15" width="1" height="2" fill="#21E46F"/>
<rect x="3" y="5" width="1" height="6" fill="#21E46F"/>
<rect x="13" y="5" width="1" height="6" fill="#21E46F"/>
<rect x="14" y="7" width="1" height="6" fill="#21E46F"/>
<rect x="12" y="14" width="1" height="3" fill="#21E46F"/>
<rect x="2" y="8" width="1" height="5" fill="#21E46F"/>
</svg>
