<svg width="38" height="36" viewBox="0 0 38 36" fill="none" xmlns="http://www.w3.org/2000/svg">
<rect width="9" height="3" fill="#21E46F"/>
<rect x="8" y="3" width="1" height="4" fill="#21E46F"/>
<rect x="9" y="3" width="1" height="4" fill="#21E46F"/>
<rect x="9" y="7" width="1" height="4" fill="#21E46F"/>
<rect x="10" y="7" width="1" height="4" fill="#21E46F"/>
<rect x="10" y="11" width="1" height="4" fill="#21E46F"/>
<rect x="11" y="11" width="1" height="4" fill="#21E46F"/>
<rect x="11" y="15" width="1" height="4" fill="#21E46F"/>
<rect x="12" y="15" width="1" height="4" fill="#21E46F"/>
<rect x="12" y="19" width="1" height="4" fill="#21E46F"/>
<rect x="19.0037" y="31.0149" width="1" height="3.00055" transform="rotate(90.2138 19.0037 31.0149)" fill="#21E46F"/>
<rect x="19.0037" y="34.0149" width="1" height="2.97046" transform="rotate(90.2138 19.0037 34.0149)" fill="#21E46F"/>
<rect x="31.0037" y="34.0149" width="1" height="3.0016" transform="rotate(90.2138 31.0037 34.0149)" fill="#21E46F"/>
<rect x="31.0037" y="31.0149" width="1" height="3.00171" transform="rotate(90.2138 31.0037 31.0149)" fill="#21E46F"/>
<rect x="14" y="23" width="1" height="4" fill="#21E46F"/>
<rect x="13" y="19" width="1" height="4" fill="#21E46F"/>
<rect x="33" y="19" width="1" height="4" fill="#21E46F"/>
<rect x="34" y="19" width="1" height="4" fill="#21E46F"/>
<rect x="34" y="15" width="1" height="4" fill="#21E46F"/>
<rect x="35" y="15" width="1" height="4" fill="#21E46F"/>
<rect x="35" y="11" width="1" height="4" fill="#21E46F"/>
<rect x="36" y="11" width="1" height="4" fill="#21E46F"/>
<rect x="36" y="7" width="1" height="4" fill="#21E46F"/>
<rect x="37" y="7" width="1" height="4" fill="#21E46F"/>
<rect x="14" y="21" width="19" height="2" fill="#21E46F"/>
<rect x="14" y="26" width="18" height="2" fill="#21E46F"/>
<rect x="10" y="5" width="28" height="2" fill="#21E46F"/>
<rect x="15" y="32" width="1" height="2" fill="#21E46F"/>
<rect x="19" y="32" width="1" height="2" fill="#21E46F"/>
<rect x="27" y="32" width="1" height="2" fill="#21E46F"/>
<rect x="31" y="32" width="1" height="2" fill="#21E46F"/>
</svg>
