<svg width="15" height="20" viewBox="0 0 15 20" fill="none" xmlns="http://www.w3.org/2000/svg">
<rect x="14" y="4" width="1" height="5" fill="#21E46F"/>
<rect y="4" width="1" height="5" fill="#21E46F"/>
<rect x="3" y="11" width="1" height="4" fill="#21E46F"/>
<rect x="4" y="15" width="1" height="4" fill="#21E46F"/>
<rect x="10" y="15" width="1" height="4" fill="#21E46F"/>
<rect x="8" y="12" width="1" height="4" fill="#21E46F"/>
<rect x="6" y="12" width="1" height="4" fill="#21E46F"/>
<rect x="11" y="11" width="1" height="4" fill="#21E46F"/>
<rect x="4" width="7" height="1" fill="#21E46F"/>
<rect x="5" y="19" width="5" height="1" fill="#21E46F"/>
<rect x="1" y="3" width="1" height="1" fill="#21E46F"/>
<rect x="2" y="2" width="1" height="1" fill="#21E46F"/>
<rect x="11" y="1" width="1" height="1" fill="#21E46F"/>
<rect x="12" y="2" width="1" height="1" fill="#21E46F"/>
<rect x="13" y="3" width="1" height="1" fill="#21E46F"/>
<rect x="3" y="1" width="1" height="1" fill="#21E46F"/>
<rect x="2" y="10" width="1" height="1" fill="#21E46F"/>
<rect x="1" y="9" width="1" height="1" fill="#21E46F"/>
<rect x="12" y="10" width="1" height="1" fill="#21E46F"/>
<rect x="13" y="9" width="1" height="1" fill="#21E46F"/>
<rect x="4" y="4" width="2" height="3" fill="#21E46F"/>
<rect x="9" y="4" width="2" height="3" fill="#21E46F"/>
<rect x="7" y="11" width="1" height="6" fill="#21E46F"/>
</svg>
